<svg width="24" height="24" viewBox="0 0 24 24" fill="none" xmlns="http://www.w3.org/2000/svg">
<g id="Frame">
<path id="Vector" d="M4.31992 1.92001C3.00015 1.92001 1.91992 3.00025 1.91992 4.32001V19.68C1.91992 20.9998 3.00015 22.08 4.31992 22.08H19.6799C20.9997 22.08 22.0799 20.9998 22.0799 19.68V4.32001C22.0799 3.00025 20.9997 1.92001 19.6799 1.92001H4.31992ZM4.31992 2.88001H19.6799C20.4808 2.88001 21.1199 3.51914 21.1199 4.32001V19.68C21.1199 20.4809 20.4808 21.12 19.6799 21.12H4.31992C3.51905 21.12 2.87992 20.4809 2.87992 19.68V4.32001C2.87992 3.51914 3.51905 2.88001 4.31992 2.88001ZM6.71992 5.28564C6.19422 5.28564 5.72115 5.44277 5.37086 5.73751C5.02057 6.03226 4.80555 6.47258 4.80555 6.94408C4.80555 7.84032 5.58294 8.53903 6.5718 8.60814L6.57367 8.60908C6.62079 8.62514 6.67015 8.63368 6.71992 8.63439C7.81097 8.63439 8.6343 7.87013 8.6343 6.94408C8.63421 6.93563 8.6339 6.92719 8.63336 6.91876C8.58452 6.00665 7.77133 5.28564 6.71992 5.28564ZM6.71992 6.23439C7.38819 6.23439 7.65207 6.53283 7.68086 6.95626C7.67503 7.36726 7.42077 7.68564 6.71992 7.68564C6.05493 7.68564 5.7543 7.34508 5.7543 6.94408C5.7543 6.74357 5.82746 6.59248 5.98117 6.46314C6.13488 6.3338 6.38163 6.23439 6.71992 6.23439ZM5.27992 9.12001C5.15262 9.12003 5.03054 9.1706 4.94052 9.26062C4.85051 9.35063 4.79993 9.47271 4.79992 9.60001V18.72C4.79993 18.8473 4.85051 18.9694 4.94052 19.0594C5.03054 19.1494 5.15262 19.2 5.27992 19.2H8.15992C8.28722 19.2 8.4093 19.1494 8.49932 19.0594C8.58933 18.9694 8.63991 18.8473 8.63992 18.72V15.9047V9.60001C8.63991 9.47271 8.58933 9.35063 8.49932 9.26062C8.4093 9.1706 8.28722 9.12003 8.15992 9.12001H5.27992ZM9.59992 9.12001C9.47262 9.12003 9.35054 9.1706 9.26052 9.26062C9.17051 9.35063 9.11993 9.47271 9.11992 9.60001V18.72C9.11993 18.8473 9.17051 18.9694 9.26052 19.0594C9.35054 19.1494 9.47262 19.2 9.59992 19.2H12.4799C12.6072 19.2 12.7293 19.1494 12.8193 19.0594C12.9093 18.9694 12.9599 18.8473 12.9599 18.72V13.92C12.9599 13.5218 13.0686 13.1256 13.2599 12.8663C13.4513 12.6069 13.6926 12.4512 14.1515 12.4594C14.6246 12.4675 14.8751 12.6296 15.0646 12.8841C15.2541 13.1385 15.3599 13.52 15.3599 13.92V18.72C15.3599 18.8473 15.4105 18.9694 15.5005 19.0594C15.5905 19.1494 15.7126 19.2 15.8399 19.2H18.7199C18.8472 19.2 18.9693 19.1494 19.0593 19.0594C19.1493 18.9694 19.1999 18.8473 19.1999 18.72V13.5656C19.1999 12.1441 18.7789 11.0181 18.0571 10.2563C17.3354 9.49443 16.3315 9.12001 15.2699 9.12001C14.261 9.12001 13.4931 9.45836 12.9599 9.80345V9.60001C12.9599 9.47271 12.9093 9.35063 12.8193 9.26062C12.7293 9.1706 12.6072 9.12003 12.4799 9.12001H9.59992ZM5.75992 10.08H7.67992V15.9047V18.24H5.75992V10.08ZM10.0799 10.08H11.9999V10.8291C12 10.9297 12.0316 11.0278 12.0904 11.1095C12.1493 11.1912 12.2323 11.2523 12.3277 11.2842C12.4232 11.3161 12.5262 11.3172 12.6224 11.2874C12.7185 11.2575 12.8028 11.1982 12.8634 11.1178C12.8634 11.1178 13.6171 10.08 15.2699 10.08C16.1115 10.08 16.8332 10.3597 17.3605 10.9163C17.8879 11.4729 18.2399 12.3304 18.2399 13.5656V18.24H16.3199V13.92C16.3199 13.36 16.1857 12.781 15.8352 12.3103C15.4847 11.8396 14.8952 11.5119 14.1684 11.4994C13.4378 11.4864 12.8387 11.821 12.4874 12.2972C12.1361 12.7734 11.9999 13.3583 11.9999 13.92V18.24H10.0799V10.08Z" fill="#005587"/>
</g>
</svg>
