<svg width="24" height="24" viewBox="0 0 24 24" fill="none" xmlns="http://www.w3.org/2000/svg">
<g id="orcid">
<path id="Vector" d="M12 2.25C6.6241 2.25 2.25 6.62411 2.25 12C2.25 17.3759 6.6241 21.75 12 21.75C17.3759 21.75 21.75 17.3759 21.75 12C21.75 6.62411 17.3759 2.25 12 2.25ZM12 3.75C16.5652 3.75 20.25 7.43477 20.25 12C20.25 16.5652 16.5652 20.25 12 20.25C7.43476 20.25 3.75 16.5652 3.75 12C3.75 7.43477 7.43476 3.75 12 3.75ZM8.25 6C8.05109 6 7.86032 6.07902 7.71967 6.21967C7.57902 6.36032 7.5 6.55109 7.5 6.75C7.5 6.94891 7.57902 7.13968 7.71967 7.28033C7.86032 7.42098 8.05109 7.5 8.25 7.5C8.44891 7.5 8.63968 7.42098 8.78033 7.28033C8.92098 7.13968 9 6.94891 9 6.75C9 6.55109 8.92098 6.36032 8.78033 6.21967C8.63968 6.07902 8.44891 6 8.25 6ZM7.5 8.25V16.5H9V8.25H7.5ZM10.5 8.25V9V16.5H13.875C16.1442 16.5 18 14.6442 18 12.375C18 10.1058 16.1442 8.25 13.875 8.25H10.5ZM12 9.75H13.875C15.3333 9.75 16.5 10.9167 16.5 12.375C16.5 13.8333 15.3333 15 13.875 15H12V9.75Z" fill="#005587"/>
</g>
</svg>
