<svg width="24" height="24" viewBox="0 0 24 24" fill="none" xmlns="http://www.w3.org/2000/svg">
<g id="research">
<path id="Vector" d="M3.75 3.75V20.25H20.25V3.75H3.75ZM5.25 5.25H18.75V18.75H5.25V5.25ZM14.373 7.50146C13.4108 7.50146 13.0811 8.18937 13.0811 8.65137V9.87744C13.0811 10.4999 13.4201 11.0947 14.2969 11.0947C15.7684 11.0932 15.5903 9.97979 15.5903 9.20654H14.4404V9.6123H15.1187C15.1187 10.2161 14.8361 10.6216 14.2983 10.6216C13.8738 10.6216 13.6289 10.2534 13.6289 9.74414V8.72607C13.6289 8.25432 14.0715 7.98193 14.373 7.98193C14.9108 7.98193 15.1172 8.45361 15.1172 8.45361L15.5229 8.17969C15.5229 8.17969 15.3255 7.50146 14.373 7.50146ZM10.188 9.81885C9.50924 9.81885 8.47271 9.88418 7.50146 9.84668V10.1484C8.08646 10.2617 8.33057 10.2047 8.33057 11.0537V15.2021C8.33057 16.0601 8.08571 15.9942 7.50146 16.1074V16.4194C7.78421 16.4097 8.27345 16.3813 8.77295 16.3813C9.2447 16.3813 9.85807 16.4007 10.1221 16.4194V16.1074C9.36757 16.0039 9.14062 16.0886 9.14062 15.2021V13.4487C9.39563 13.4675 9.61315 13.4663 9.95215 13.4663C10.5934 14.6168 11.2059 15.4761 11.5547 15.8818C12.1862 16.6453 13.1962 16.5327 13.4414 16.4194V16.1367C13.0642 16.136 12.6861 15.8816 12.4131 15.5801C11.9511 15.0806 11.3286 14.2692 10.8193 13.355C11.6683 13.1472 12.3003 12.346 12.3003 11.5532C12.3003 10.3652 11.385 9.81885 10.188 9.81885ZM9.99023 10.2979C10.8767 10.2979 11.4038 10.7599 11.4038 11.6089C11.4031 12.4399 10.8378 12.9946 9.89502 12.9946C9.54627 12.9946 9.38588 12.9855 9.14062 12.9668V10.3257C9.38588 10.2972 9.70673 10.2979 9.99023 10.2979Z" fill="#005587"/>
</g>
</svg>
