<svg width="24" height="24" viewBox="0 0 24 24" fill="none" xmlns="http://www.w3.org/2000/svg">
<g id="scholar" clip-path="url(#clip0_25_1253)">
<path id="Vector" d="M12 0.959991C5.90854 0.959991 0.959961 5.90857 0.959961 12C0.959961 18.0914 5.90854 23.04 12 23.04C18.0914 23.04 23.04 18.0914 23.04 12C23.04 5.90857 18.0914 0.959991 12 0.959991ZM12 1.91999C17.5725 1.91999 22.08 6.42741 22.08 12C22.08 17.5726 17.5725 22.08 12 22.08C6.42738 22.08 1.91996 17.5726 1.91996 12C1.91996 6.42741 6.42738 1.91999 12 1.91999ZM10.08 5.27999L5.27996 9.59999H8.53496C8.54456 10.9666 9.58438 12.3506 11.4093 12.3506C11.5821 12.3506 11.7742 12.3314 11.9662 12.3122C11.8798 12.5282 11.789 12.7056 11.789 12.9984C11.789 13.5504 12.0673 13.8816 12.3121 14.1984C11.5297 14.2512 10.075 14.3422 9.00465 15.0094C7.98225 15.6286 7.67059 16.5264 7.67059 17.16C7.67059 18.4656 8.88019 19.68 11.3906 19.68C14.3666 19.68 15.9459 18.0051 15.9459 16.3491C15.9459 15.1347 15.2541 14.5344 14.4909 13.8816L13.8721 13.3875C13.6801 13.2339 13.4156 13.0177 13.4156 12.6337C13.4156 12.2449 13.6803 11.9951 13.9059 11.7647C14.6307 11.1887 15.36 10.5409 15.36 9.2353C15.36 8.73466 15.2429 8.32722 15.0759 7.99218L16.8 6.51374V8.29312C16.5144 8.4592 16.32 8.76527 16.32 9.11999V12C16.32 12.5299 16.75 12.96 17.28 12.96C17.8099 12.96 18.24 12.5299 18.24 12V9.11999C18.24 8.76575 18.0456 8.45968 17.76 8.29312V5.75999C17.76 5.73935 17.7507 5.72203 17.7478 5.70187L18.24 5.27999H10.08ZM11.6493 6.8353C13.0893 6.8353 13.8337 8.80799 13.8337 10.08C13.8337 10.392 13.7951 10.9536 13.4015 11.3616C13.1231 11.6448 12.658 11.8556 12.2212 11.8556C10.738 11.8556 10.0556 9.89767 10.0556 8.71687C10.0556 8.26087 10.1472 7.78604 10.44 7.42124C10.7184 7.06124 11.2029 6.8353 11.6493 6.8353ZM12.4987 14.6925C12.6763 14.6925 12.7636 14.693 12.9028 14.7122C14.218 15.6626 14.7843 16.1377 14.7843 17.0353C14.7843 18.1249 13.9056 18.9412 12.24 18.9412C10.3872 18.9412 9.19684 18.0434 9.19684 16.7906C9.19684 15.5378 10.3006 15.1196 10.6846 14.9756C11.4094 14.726 12.3451 14.6925 12.4987 14.6925Z" fill="#005587"/>
</g>
<defs>
<clipPath id="clip0_25_1253">
<rect width="24" height="24" fill="white"/>
</clipPath>
</defs>
</svg>
